<?xml version="1.0" encoding="UTF-8"?>
<svg id="Layer_2" xmlns="http://www.w3.org/2000/svg" viewBox="0 0 102.1 108.86">
  <defs>
    <style>
      .cls-1 {
        fill: #f8faf6;
      }

      .cls-2 {
        fill: #006a72;
      }

      .cls-3 {
        fill: #b5b5b4;
      }
    </style>
  </defs>
  <g id="Layer_1-2" data-name="Layer_1">
    <g>
      <path class="cls-1" d="M99.44,2.65c.04-1.35-1.02-2.53-2.36-2.64-1.43-.12-2.73.9-2.71,2.36.01,1-.4,1.64-.98,2.33-3.57,4.23-7.12,8.47-10.66,12.72-3.52,4.23-7.01,8.49-10.55,12.72-2.21,2.65-4.45,5.28-6.75,7.85-.67.75-.73,1.41-.04,2,.64.55,1.27.6,1.95-.25,1.92-2.43,3.97-4.75,5.97-7.12.36-.42.61-.87,1.29-.25,1.61,1.46,1.65,1.42,3.1-.34.35-.43.72-.85,1.07-1.28,1.07-1.32,1.1-1.65-.18-2.74-.74-.63-.55-1.02-.03-1.65,3.03-3.74,6.25-7.32,9.21-11.13,2.49-3.21,5.28-6.18,7.92-9.27.4-.47.81-.78,1.48-.87,1.35-.18,2.22-1.23,2.26-2.44ZM100.46,13.59c.01-1.57-.81-2.53-2.19-2.64-1.37-.11-2.78.81-2.75,2.12.03,1.33-.59,2.16-1.38,3.02-.62.68-1.19,1.41-1.79,2.12-5.15,6.13-10.3,12.27-15.45,18.4-1.61,1.91-3.21,3.83-4.82,5.74-.8.95,0,1.37.58,1.89.62.56.97.3,1.43-.29,1.08-1.39,2.22-2.73,3.39-4.04,1.99-2.24,2.01-2.23,3.68.32,1.26,1.92,1.31,1.96,2.76.21,3.11-3.77,3.05-2.16.23-6.3-.61-.89-.7-1.44,0-2.25,4.26-5.01,8.5-10.04,12.73-15.07.43-.51.85-.83,1.58-.95,1.26-.21,2.09-.98,2.02-2.3ZM48.58,29.93c1.38.02,2.86.22,3.53-.47.66-.68,1.45-1.32,2.05-2.09,1-1.27,2.07-2.48,3.07-3.74.4-.51.78-.65,1.42-.4,1.2.49,2.45.84,3.65,1.34.62.26.99.2,1.42-.33.92-1.16,1.88-2.3,2.86-3.41.48-.54.44-.84-.23-1.11-1.03-.41-2.03-.94-3.09-1.25-1.2-.35-1.05-.8-.38-1.58,2.59-3.03,5.14-6.09,7.69-9.15.45-.55.88-.93,1.7-.98,1.23-.09,2.14-1.34,2.08-2.55-.06-1.27-1.02-2.3-2.26-2.43-1.4-.14-2.75.64-2.74,1.94.02,1.61-.91,2.53-1.79,3.58-6.27,7.48-12.55,14.96-18.98,22.62ZM88.45,3.42c.04-1.45-1.03-2.64-2.44-2.69-1.22-.05-2.56,1.04-2.53,2.29.03,1.1-.42,1.83-1.09,2.57-.77.86-1.49,1.77-2.23,2.66-6.73,8.02-13.44,16.06-20.2,24.05-.93,1.1.19,1.3.57,1.82.56.75.99.33,1.42-.19,1.51-1.81,3.14-3.55,4.52-5.45.84-1.15,1.57-1.3,2.58-.43.73.62,1.27.52,1.85-.21.66-.84,1.36-1.65,2.09-2.42.84-.87.87-1.57-.31-2.11-1.03-.48-1.05-.98-.29-1.86,3.7-4.33,7.34-8.72,10.99-13.09,1-1.2,1.85-2.47,3.62-2.78.94-.16,1.42-1.13,1.44-2.16Z"/>
      <path class="cls-3" d="M100.46,13.59c.06,1.32-.77,2.09-2.02,2.3-.72.12-1.15.44-1.58.95-4.23,5.03-8.47,10.06-12.73,15.07-.69.81-.6,1.36,0,2.25,2.82,4.14,2.89,2.53-.23,6.3-1.45,1.75-1.5,1.71-2.76-.21-1.67-2.54-1.68-2.56-3.68-.32-1.17,1.31-2.32,2.65-3.39,4.04-.46.59-.8.86-1.43.29-.57-.52-1.38-.94-.58-1.89,1.61-1.91,3.21-3.83,4.82-5.74,5.15-6.13,10.3-12.27,15.45-18.4.6-.71,1.17-1.44,1.79-2.12.79-.86,1.41-1.69,1.38-3.02-.03-1.31,1.38-2.23,2.75-2.12,1.38.11,2.2,1.06,2.19,2.64Z"/>
      <g>
        <path class="cls-2" d="M56.74,16.61c-1.44,1.72-2.75,3.27-4.05,4.83-.36.44-.8.37-1.27.32-12.11-1.21-22.8,2.14-31.86,10.26-8.09,7.24-12.41,16.43-13.3,27.24-.04.45,0,.9,0,1.75,1.46-1.73,2.71-3.19,3.94-4.65.98-1.17,2.02-2.31,2.92-3.54.91-1.24,2.03-1.5,3.42-1.12.45.12.94.16,1.33.38,1.05.59,1.62-.03,2.18-.76,4.06-5.29,8.41-10.34,12.83-15.34.91-1.03,1.73-2.14,2.54-3.25,1.13-1.58,2.76-1.77,4.43-1.48,2.29.4,4.2,1.69,5.98,3.12.66.53,1.03.65,1.67-.09,2.26-2.59,3.85-2.88,6.94-1.37,3.94,1.93,7.15,4.62,8.99,8.72.24.53.67.55,1.11.69,4.5,1.39,7.9,4.22,10.35,8.18,1.47,2.39,1.37,3.75-.4,5.79-.88,1.02-.76,1.53.25,2.38,1.81,1.53,3.33,3.36,4.05,5.71.43,1.39.16,2.6-.8,3.74-5.37,6.34-10.69,12.71-16.05,19.05-.5.59-.63,1.05-.17,1.7.29.41.47.9.67,1.37.56,1.3.48,2.41-.57,3.55-2.03,2.23-3.91,4.59-5.84,6.91-.26.31-.61.58-.61,1.05,21.49-3.52,39.25-28.84,29.21-54.42-2.12,2.51-4.16,4.92-6.36,7.52-.18-2.03-.5-3.61,1.01-5.32,5.84-6.66,11.46-13.52,17.17-20.29.41-.49.57-.98.57-1.64-.01-1.45,1.02-2.52,2.36-2.61,1.2-.08,2.44.93,2.67,2.2.24,1.27-.62,2.58-2.07,2.83-.88.15-1.38.61-1.89,1.22-2.76,3.32-5.51,6.63-8.31,9.91-.55.64-.69,1.14-.33,1.97,8.07,18.65,3.96,39.21-10.75,53.14-7.4,7.01-16.27,11.05-26.42,12.24-4.97.58-9.93.52-14.8-.61-17.2-3.96-29.01-14.19-34.82-30.88-4.37-12.55-3.33-24.96,2.95-36.64,7.09-13.18,18.13-21.29,32.92-24.11,5.67-1.08,11.35-1.02,17.02.04.31.06.62.16,1.19.3ZM52.55,77.38c.19-.28.34-.57.55-.82,1.09-1.31,2.19-2.6,3.28-3.9,5.16-6.15,10.3-12.32,15.49-18.44.58-.69.68-1.19.2-1.94-1.84-2.85-4.29-4.95-7.37-6.37-1.11-.51-1.81-.29-2.59.67-2.93,3.6-5.94,7.12-8.93,10.68-3.04,3.62-6.09,7.24-9.12,10.88-.33.4-.98.76-.15,1.43,2.74,2.23,5.27,4.68,7.79,7.16.19.19.43.34.85.66ZM60.4,43.02c-.11-.23-.23-.53-.4-.8-1.87-3.12-4.54-5.3-7.91-6.65-.83-.33-1.26,0-1.75.59-6.21,7.43-12.43,14.86-18.68,22.25-.65.77-.58,1.12.21,1.69,2.59,1.88,5.18,3.75,7.63,5.8,1.03.86,1.64.73,2.3-.18,2.6-3.56,5.67-6.72,8.42-10.16,3.1-3.87,6.35-7.61,9.53-11.42.26-.31.62-.58.65-1.12ZM59.09,85c.42-.05.59-.35.79-.59,5.12-6.1,10.22-12.21,15.35-18.3.39-.47.42-.81.13-1.35-.82-1.55-2.01-2.76-3.25-3.95-.58-.55-.94-.55-1.43.08-1.49,1.92-3.19,3.64-4.71,5.54-3.38,4.24-6.95,8.33-10.42,12.5-.33.39-1.01.73-.34,1.49,1.22,1.37,2.33,2.83,3.49,4.24.11.14.26.24.37.34ZM44.48,37.74c-.16-.18-.27-.33-.4-.45-1.43-1.21-2.98-2.19-4.78-2.78-.59-.19-.92-.01-1.3.44-5.09,6.09-10.18,12.16-15.31,18.22-.54.64-.37.88.24,1.22,1.41.8,2.83,1.6,4.18,2.49.69.45,1.1.39,1.62-.24,5.04-6.04,10.12-12.07,15.17-18.1.2-.24.36-.51.57-.8Z"/>
        <path class="cls-2" d="M99.44,2.65c-.03,1.21-.91,2.25-2.26,2.44-.68.09-1.08.4-1.48.87-2.65,3.09-5.43,6.07-7.92,9.27-2.96,3.81-6.18,7.38-9.21,11.13-.52.64-.71,1.02.03,1.65,1.28,1.09,1.25,1.42.18,2.74-.35.43-.72.85-1.07,1.28-1.44,1.76-1.48,1.81-3.1.34-.68-.62-.93-.18-1.29.25-2,2.36-4.05,4.69-5.97,7.12-.68.85-1.31.81-1.95.25-.69-.6-.63-1.25.04-2,2.3-2.58,4.53-5.21,6.75-7.85,3.53-4.22,7.02-8.48,10.55-12.72,3.54-4.25,7.09-8.49,10.66-12.72.58-.69.99-1.33.98-2.33-.02-1.46,1.29-2.47,2.71-2.36,1.34.11,2.4,1.29,2.36,2.64Z"/>
        <path class="cls-2" d="M48.58,29.93c6.43-7.67,12.71-15.15,18.98-22.62.88-1.05,1.81-1.97,1.79-3.58-.02-1.31,1.34-2.08,2.74-1.94,1.24.12,2.19,1.15,2.26,2.43.06,1.21-.84,2.46-2.08,2.55-.81.06-1.24.44-1.7.98-2.55,3.06-5.1,6.12-7.69,9.15-.67.79-.82,1.23.38,1.58,1.06.31,2.06.84,3.09,1.25.67.27.7.58.23,1.11-.99,1.11-1.94,2.24-2.86,3.41-.42.53-.8.59-1.42.33-1.19-.5-2.45-.86-3.65-1.34-.63-.26-1.01-.11-1.42.4-1,1.26-2.07,2.48-3.07,3.74-.61.77-1.39,1.41-2.05,2.09-.67.69-2.15.49-3.53.47Z"/>
      </g>
      <path class="cls-3" d="M88.45,3.42c-.02,1.03-.5,1.99-1.44,2.16-1.77.31-2.62,1.58-3.62,2.78-3.65,4.38-7.29,8.76-10.99,13.09-.76.89-.74,1.39.29,1.86,1.18.55,1.14,1.24.31,2.11-.74.77-1.44,1.58-2.09,2.42-.58.73-1.12.84-1.85.21-1.01-.87-1.74-.72-2.58.43-1.39,1.91-3.01,3.64-4.52,5.45-.43.51-.86.94-1.42.19-.39-.53-1.51-.72-.57-1.82,6.76-7.99,13.47-16.03,20.2-24.05.74-.89,1.46-1.8,2.23-2.66.67-.74,1.12-1.47,1.09-2.57-.04-1.25,1.31-2.34,2.53-2.29,1.41.05,2.48,1.24,2.44,2.69Z"/>
    </g>
  </g>
</svg>